<svg width="512" height="512" viewBox="0 0 512 512" fill="none" xmlns="http://www.w3.org/2000/svg">
  <circle cx="256" cy="256" r="256" fill="#000000"/>
  <rect x="196.01" y="35.63" width="13.05" height="13.05" fill="#1C1C1C"/>
  <rect x="213.83" y="35.63" width="13.05" height="13.05" fill="#1C1C1C"/>
  <rect x="231.65" y="35.63" width="13.05" height="13.05" fill="#1C1C1C"/>
  <rect x="249.47" y="35.63" width="13.05" height="13.05" fill="#1C1C1C"/>
  <rect x="267.29" y="35.63" width="13.05" height="13.05" fill="#1C1C1C"/>
  <rect x="285.11" y="35.63" width="13.05" height="13.05" fill="#1C1C1C"/>
  <rect x="302.93" y="35.63" width="13.05" height="13.05" fill="#1C1C1C"/>
  <rect x="160.37" y="53.45" width="13.05" height="13.05" fill="#1C1C1C"/>
  <rect x="178.19" y="53.45" width="13.05" height="13.05" fill="#1C1C1C"/>
  <rect x="196.01" y="53.45" width="13.05" height="13.05" fill="#1C1C1C"/>
  <rect x="213.83" y="53.45" width="13.05" height="13.05" fill="#1C1C1C"/>
  <rect x="231.65" y="53.45" width="13.05" height="13.05" fill="#1C1C1C"/>
  <rect x="249.47" y="53.45" width="13.05" height="13.05" fill="#1C1C1C"/>
  <rect x="267.29" y="53.45" width="13.05" height="13.05" fill="#1C1C1C"/>
  <rect x="285.11" y="53.45" width="13.05" height="13.05" fill="#1C1C1C"/>
  <rect x="302.93" y="53.45" width="13.05" height="13.05" fill="#1C1C1C"/>
  <rect x="320.75" y="53.45" width="13.05" height="13.05" fill="#1C1C1C"/>
  <rect x="338.57" y="53.45" width="13.05" height="13.05" fill="#1C1C1C"/>
  <rect x="124.73" y="71.27" width="13.05" height="13.05" fill="#1C1C1C"/>
  <rect x="142.55" y="71.27" width="13.05" height="13.05" fill="#1C1C1C"/>
  <rect x="160.37" y="71.27" width="13.05" height="13.05" fill="#1C1C1C"/>
  <rect x="178.19" y="71.27" width="13.05" height="13.05" fill="#1C1C1C"/>
  <rect x="196.01" y="71.27" width="13.05" height="13.05" fill="#1C1C1C"/>
  <rect x="213.83" y="71.27" width="13.05" height="13.05" fill="#1C1C1C"/>
  <rect x="231.65" y="71.27" width="13.05" height="13.05" fill="#1C1C1C"/>
  <rect x="249.47" y="71.27" width="13.05" height="13.05" fill="#1C1C1C"/>
  <rect x="267.29" y="71.27" width="13.05" height="13.05" fill="#1C1C1C"/>
  <rect x="285.11" y="71.27" width="13.05" height="13.05" fill="#1C1C1C"/>
  <rect x="302.93" y="71.27" width="13.05" height="13.05" fill="#1C1C1C"/>
  <rect x="320.75" y="71.27" width="13.05" height="13.05" fill="#1C1C1C"/>
  <rect x="338.57" y="71.27" width="13.05" height="13.05" fill="#1C1C1C"/>
  <rect x="356.39" y="71.27" width="13.05" height="13.05" fill="#1C1C1C"/>
  <rect x="374.21" y="71.27" width="13.05" height="13.05" fill="#1C1C1C"/>
  <rect x="106.91" y="89.09" width="13.05" height="13.05" fill="#1C1C1C"/>
  <rect x="124.73" y="89.09" width="13.05" height="13.05" fill="#1C1C1C"/>
  <rect x="142.55" y="89.09" width="13.05" height="13.05" fill="#1C1C1C"/>
  <rect x="160.37" y="89.09" width="13.05" height="13.05" fill="#1C1C1C"/>
  <rect x="178.19" y="89.09" width="13.05" height="13.05" fill="#1C1C1C"/>
  <rect x="196.01" y="89.09" width="13.05" height="13.05" fill="#1C1C1C"/>
  <rect x="213.83" y="89.09" width="13.05" height="13.05" fill="#1C1C1C"/>
  <rect x="231.65" y="89.09" width="13.05" height="13.05" fill="#1C1C1C"/>
  <rect x="249.47" y="89.09" width="13.05" height="13.05" fill="#1C1C1C"/>
  <rect x="267.29" y="89.09" width="13.05" height="13.05" fill="#1C1C1C"/>
  <rect x="285.11" y="89.09" width="13.05" height="13.05" fill="#1C1C1C"/>
  <rect x="302.93" y="89.09" width="13.05" height="13.05" fill="#1C1C1C"/>
  <rect x="320.75" y="89.09" width="13.05" height="13.05" fill="#1C1C1C"/>
  <rect x="338.57" y="89.09" width="13.05" height="13.05" fill="#1C1C1C"/>
  <rect x="356.39" y="89.09" width="13.05" height="13.05" fill="#1C1C1C"/>
  <rect x="374.21" y="89.09" width="13.05" height="13.05" fill="#1C1C1C"/>
  <rect x="392.03" y="89.09" width="13.05" height="13.05" fill="#1C1C1C"/>
  <rect x="89.09" y="106.91" width="13.05" height="13.05" fill="#1C1C1C"/>
  <rect x="106.91" y="106.91" width="13.05" height="13.05" fill="#1C1C1C"/>
  <rect x="124.73" y="106.91" width="13.05" height="13.05" fill="#1C1C1C"/>
  <rect x="142.55" y="106.91" width="13.05" height="13.05" fill="#1C1C1C"/>
  <rect x="160.37" y="106.91" width="13.05" height="13.05" fill="#1C1C1C"/>
  <rect x="178.19" y="106.91" width="13.05" height="13.05" fill="#1C1C1C"/>
  <rect x="196.01" y="106.91" width="13.05" height="13.05" fill="#1C1C1C"/>
  <rect x="213.83" y="106.91" width="13.05" height="13.05" fill="#1C1C1C"/>
  <rect x="231.65" y="106.91" width="13.05" height="13.05" fill="#1C1C1C"/>
  <rect x="249.47" y="106.91" width="13.05" height="13.05" fill="#1C1C1C"/>
  <rect x="267.29" y="106.91" width="13.05" height="13.05" fill="#1C1C1C"/>
  <rect x="285.11" y="106.91" width="13.05" height="13.05" fill="#1C1C1C"/>
  <rect x="302.93" y="106.91" width="13.05" height="13.05" fill="#1C1C1C"/>
  <rect x="320.75" y="106.91" width="13.05" height="13.05" fill="#1C1C1C"/>
  <rect x="338.57" y="106.91" width="13.05" height="13.05" fill="#1C1C1C"/>
  <rect x="356.39" y="106.91" width="13.05" height="13.05" fill="#1C1C1C"/>
  <rect x="374.21" y="106.91" width="13.05" height="13.05" fill="#1C1C1C"/>
  <rect x="392.03" y="106.91" width="13.05" height="13.05" fill="#1C1C1C"/>
  <rect x="409.85" y="106.91" width="13.05" height="13.05" fill="#1C1C1C"/>
  <rect x="71.27" y="124.73" width="13.05" height="13.05" fill="#1C1C1C"/>
  <rect x="89.09" y="124.73" width="13.05" height="13.05" fill="#1C1C1C"/>
  <rect x="106.91" y="124.73" width="13.05" height="13.05" fill="#1C1C1C"/>
  <rect x="142.55" y="124.73" width="13.05" height="13.05" fill="#1C1C1C"/>
  <rect x="160.37" y="124.73" width="13.05" height="13.05" fill="#1C1C1C"/>
  <rect x="231.65" y="124.73" width="13.05" height="13.05" fill="#1C1C1C"/>
  <rect x="249.47" y="124.73" width="13.05" height="13.05" fill="#1C1C1C"/>
  <rect x="267.29" y="124.73" width="13.05" height="13.05" fill="#1C1C1C"/>
  <rect x="338.57" y="124.73" width="13.05" height="13.05" fill="#1C1C1C"/>
  <rect x="374.21" y="124.73" width="13.05" height="13.05" fill="#1C1C1C"/>
  <rect x="409.85" y="124.73" width="13.05" height="13.05" fill="#1C1C1C"/>
  <rect x="427.67" y="124.73" width="13.05" height="13.05" fill="#1C1C1C"/>
  <rect x="71.27" y="142.55" width="13.05" height="13.05" fill="#1C1C1C"/>
  <rect x="89.09" y="142.55" width="13.05" height="13.05" fill="#1C1C1C"/>
  <rect x="142.55" y="142.55" width="13.05" height="13.05" fill="#1C1C1C"/>
  <rect x="160.37" y="142.55" width="13.05" height="13.05" fill="#1C1C1C"/>
  <rect x="178.19" y="142.55" width="13.05" height="13.05" fill="#1C1C1C"/>
  <rect x="196.01" y="142.55" width="13.05" height="13.05" fill="#1C1C1C"/>
  <rect x="231.65" y="142.55" width="13.05" height="13.05" fill="#1C1C1C"/>
  <rect x="267.29" y="142.55" width="13.05" height="13.05" fill="#1C1C1C"/>
  <rect x="285.11" y="142.55" width="13.05" height="13.05" fill="#1C1C1C"/>
  <rect x="302.93" y="142.55" width="13.05" height="13.05" fill="#1C1C1C"/>
  <rect x="338.57" y="142.55" width="13.05" height="13.05" fill="#1C1C1C"/>
  <rect x="374.21" y="142.55" width="13.05" height="13.05" fill="#1C1C1C"/>
  <rect x="409.85" y="142.55" width="13.05" height="13.05" fill="#1C1C1C"/>
  <rect x="427.67" y="142.55" width="13.05" height="13.05" fill="#1C1C1C"/>
  <rect x="53.45" y="160.37" width="13.05" height="13.05" fill="#1C1C1C"/>
  <rect x="71.27" y="160.37" width="13.05" height="13.05" fill="#1C1C1C"/>
  <rect x="89.09" y="160.37" width="13.05" height="13.05" fill="#1C1C1C"/>
  <rect x="106.91" y="160.37" width="13.05" height="13.05" fill="#1C1C1C"/>
  <rect x="142.55" y="160.37" width="13.05" height="13.05" fill="#1C1C1C"/>
  <rect x="160.37" y="160.37" width="13.05" height="13.05" fill="#1C1C1C"/>
  <rect x="231.65" y="160.37" width="13.05" height="13.05" fill="#1C1C1C"/>
  <rect x="249.47" y="160.37" width="13.05" height="13.05" fill="#1C1C1C"/>
  <rect x="267.29" y="160.37" width="13.05" height="13.05" fill="#1C1C1C"/>
  <rect x="338.57" y="160.37" width="13.05" height="13.05" fill="#1C1C1C"/>
  <rect x="409.85" y="160.37" width="13.05" height="13.05" fill="#1C1C1C"/>
  <rect x="427.67" y="160.37" width="13.05" height="13.05" fill="#1C1C1C"/>
  <rect x="445.49" y="160.37" width="13.05" height="13.05" fill="#1C1C1C"/>
  <rect x="53.45" y="178.19" width="13.05" height="13.05" fill="#1C1C1C"/>
  <rect x="71.27" y="178.19" width="13.05" height="13.05" fill="#1C1C1C"/>
  <rect x="89.09" y="178.19" width="13.05" height="13.05" fill="#1C1C1C"/>
  <rect x="106.91" y="178.19" width="13.05" height="13.05" fill="#1C1C1C"/>
  <rect x="142.55" y="178.19" width="13.05" height="13.05" fill="#1C1C1C"/>
  <rect x="160.37" y="178.19" width="13.05" height="13.05" fill="#1C1C1C"/>
  <rect x="196.01" y="178.19" width="13.05" height="13.05" fill="#1C1C1C"/>
  <rect x="213.83" y="178.19" width="13.05" height="13.05" fill="#1C1C1C"/>
  <rect x="231.65" y="178.19" width="13.05" height="13.05" fill="#1C1C1C"/>
  <rect x="267.29" y="178.19" width="13.05" height="13.05" fill="#1C1C1C"/>
  <rect x="285.11" y="178.19" width="13.05" height="13.05" fill="#1C1C1C"/>
  <rect x="302.93" y="178.19" width="13.05" height="13.05" fill="#1C1C1C"/>
  <rect x="338.57" y="178.19" width="13.05" height="13.05" fill="#1C1C1C"/>
  <rect x="356.39" y="178.19" width="13.05" height="13.05" fill="#1C1C1C"/>
  <rect x="374.21" y="178.19" width="13.05" height="13.05" fill="#1C1C1C"/>
  <rect x="409.85" y="178.19" width="13.05" height="13.05" fill="#1C1C1C"/>
  <rect x="427.67" y="178.19" width="13.05" height="13.05" fill="#1C1C1C"/>
  <rect x="445.49" y="178.19" width="13.05" height="13.05" fill="#1C1C1C"/>
  <rect x="35.63" y="196.01" width="13.05" height="13.05" fill="#1C1C1C"/>
  <rect x="53.45" y="196.01" width="13.05" height="13.05" fill="#1C1C1C"/>
  <rect x="71.27" y="196.01" width="13.05" height="13.05" fill="#1C1C1C"/>
  <rect x="89.09" y="196.01" width="13.05" height="13.05" fill="#1C1C1C"/>
  <rect x="160.37" y="196.01" width="13.05" height="13.05" fill="#1C1C1C"/>
  <rect x="231.65" y="196.01" width="13.05" height="13.05" fill="#1C1C1C"/>
  <rect x="249.47" y="196.01" width="13.05" height="13.05" fill="#1C1C1C"/>
  <rect x="267.29" y="196.01" width="13.05" height="13.05" fill="#1C1C1C"/>
  <rect x="338.57" y="196.01" width="13.05" height="13.05" fill="#1C1C1C"/>
  <rect x="356.39" y="196.01" width="13.05" height="13.05" fill="#1C1C1C"/>
  <rect x="374.21" y="196.01" width="13.05" height="13.05" fill="#1C1C1C"/>
  <rect x="409.85" y="196.01" width="13.05" height="13.05" fill="#1C1C1C"/>
  <rect x="427.67" y="196.01" width="13.05" height="13.05" fill="#1C1C1C"/>
  <rect x="445.49" y="196.01" width="13.05" height="13.05" fill="#1C1C1C"/>
  <rect x="463.31" y="196.01" width="13.05" height="13.05" fill="#1C1C1C"/>
  <rect x="35.63" y="213.83" width="13.05" height="13.05" fill="#1C1C1C"/>
  <rect x="53.45" y="213.83" width="13.05" height="13.05" fill="#1C1C1C"/>
  <rect x="71.27" y="213.83" width="13.05" height="13.05" fill="#1C1C1C"/>
  <rect x="89.09" y="213.83" width="13.05" height="13.05" fill="#1C1C1C"/>
  <rect x="106.91" y="213.83" width="13.05" height="13.05" fill="#1C1C1C"/>
  <rect x="124.73" y="213.83" width="13.05" height="13.05" fill="#1C1C1C"/>
  <rect x="142.55" y="213.83" width="13.05" height="13.05" fill="#1C1C1C"/>
  <rect x="160.37" y="213.83" width="13.05" height="13.05" fill="#1C1C1C"/>
  <rect x="178.19" y="213.83" width="13.05" height="13.05" fill="#1C1C1C"/>
  <rect x="196.01" y="213.83" width="13.05" height="13.05" fill="#1C1C1C"/>
  <rect x="213.83" y="213.83" width="13.05" height="13.05" fill="#1C1C1C"/>
  <rect x="231.65" y="213.83" width="13.05" height="13.05" fill="#1C1C1C"/>
  <rect x="249.47" y="213.83" width="13.05" height="13.05" fill="#1C1C1C"/>
  <rect x="267.29" y="213.83" width="13.05" height="13.05" fill="#1C1C1C"/>
  <rect x="285.11" y="213.83" width="13.05" height="13.05" fill="#1C1C1C"/>
  <rect x="302.93" y="213.83" width="13.05" height="13.05" fill="#1C1C1C"/>
  <rect x="320.75" y="213.83" width="13.05" height="13.05" fill="#1C1C1C"/>
  <rect x="338.57" y="213.83" width="13.05" height="13.05" fill="#1C1C1C"/>
  <rect x="356.39" y="213.83" width="13.05" height="13.05" fill="#1C1C1C"/>
  <rect x="374.21" y="213.83" width="13.05" height="13.05" fill="#1C1C1C"/>
  <rect x="392.03" y="213.83" width="13.05" height="13.05" fill="#1C1C1C"/>
  <rect x="409.85" y="213.83" width="13.05" height="13.05" fill="#1C1C1C"/>
  <rect x="427.67" y="213.83" width="13.05" height="13.05" fill="#1C1C1C"/>
  <rect x="445.49" y="213.83" width="13.05" height="13.05" fill="#1C1C1C"/>
  <rect x="463.31" y="213.83" width="13.05" height="13.05" fill="#1C1C1C"/>
  <rect x="35.63" y="231.65" width="13.05" height="13.05" fill="#1C1C1C"/>
  <rect x="53.45" y="231.65" width="13.05" height="13.05" fill="#1C1C1C"/>
  <rect x="71.27" y="231.65" width="13.05" height="13.05" fill="#1C1C1C"/>
  <rect x="89.09" y="231.65" width="13.05" height="13.05" fill="#1C1C1C"/>
  <rect x="160.37" y="231.65" width="13.05" height="13.05" fill="#1C1C1C"/>
  <rect x="231.65" y="231.65" width="13.05" height="13.05" fill="#1C1C1C"/>
  <rect x="249.47" y="231.65" width="13.05" height="13.05" fill="#1C1C1C"/>
  <rect x="267.29" y="231.65" width="13.05" height="13.05" fill="#1C1C1C"/>
  <rect x="338.57" y="231.65" width="13.05" height="13.05" fill="#1C1C1C"/>
  <rect x="374.21" y="231.65" width="13.05" height="13.05" fill="#1C1C1C"/>
  <rect x="409.85" y="231.65" width="13.05" height="13.05" fill="#1C1C1C"/>
  <rect x="427.67" y="231.65" width="13.05" height="13.05" fill="#1C1C1C"/>
  <rect x="445.49" y="231.65" width="13.05" height="13.05" fill="#1C1C1C"/>
  <rect x="463.31" y="231.65" width="13.05" height="13.05" fill="#1C1C1C"/>
  <rect x="35.63" y="249.47" width="13.05" height="13.05" fill="#1C1C1C"/>
  <rect x="53.45" y="249.47" width="13.05" height="13.05" fill="#1C1C1C"/>
  <rect x="71.27" y="249.47" width="13.05" height="13.05" fill="#1C1C1C"/>
  <rect x="89.09" y="249.47" width="13.05" height="13.05" fill="#1C1C1C"/>
  <rect x="124.73" y="249.47" width="13.05" height="13.05" fill="#1C1C1C"/>
  <rect x="160.37" y="249.47" width="13.05" height="13.05" fill="#1C1C1C"/>
  <rect x="178.19" y="249.47" width="13.05" height="13.05" fill="#1C1C1C"/>
  <rect x="196.01" y="249.47" width="13.05" height="13.05" fill="#1C1C1C"/>
  <rect x="231.65" y="249.47" width="13.05" height="13.05" fill="#1C1C1C"/>
  <rect x="267.29" y="249.47" width="13.05" height="13.05" fill="#1C1C1C"/>
  <rect x="302.93" y="249.47" width="13.05" height="13.05" fill="#1C1C1C"/>
  <rect x="338.57" y="249.47" width="13.05" height="13.05" fill="#1C1C1C"/>
  <rect x="374.21" y="249.47" width="13.05" height="13.05" fill="#1C1C1C"/>
  <rect x="409.85" y="249.47" width="13.05" height="13.05" fill="#1C1C1C"/>
  <rect x="427.67" y="249.47" width="13.05" height="13.05" fill="#1C1C1C"/>
  <rect x="445.49" y="249.47" width="13.05" height="13.05" fill="#1C1C1C"/>
  <rect x="463.31" y="249.47" width="13.05" height="13.05" fill="#1C1C1C"/>
  <rect x="35.63" y="267.29" width="13.05" height="13.05" fill="#1C1C1C"/>
  <rect x="53.45" y="267.29" width="13.05" height="13.05" fill="#1C1C1C"/>
  <rect x="71.27" y="267.29" width="13.05" height="13.05" fill="#1C1C1C"/>
  <rect x="89.09" y="267.29" width="13.05" height="13.05" fill="#1C1C1C"/>
  <rect x="124.73" y="267.29" width="13.05" height="13.05" fill="#1C1C1C"/>
  <rect x="160.37" y="267.29" width="13.05" height="13.05" fill="#1C1C1C"/>
  <rect x="231.65" y="267.29" width="13.05" height="13.05" fill="#1C1C1C"/>
  <rect x="249.47" y="267.29" width="13.05" height="13.05" fill="#1C1C1C"/>
  <rect x="267.29" y="267.29" width="13.05" height="13.05" fill="#1C1C1C"/>
  <rect x="302.93" y="267.29" width="13.05" height="13.05" fill="#1C1C1C"/>
  <rect x="338.57" y="267.29" width="13.05" height="13.05" fill="#1C1C1C"/>
  <rect x="409.85" y="267.29" width="13.05" height="13.05" fill="#1C1C1C"/>
  <rect x="427.67" y="267.29" width="13.05" height="13.05" fill="#1C1C1C"/>
  <rect x="445.49" y="267.29" width="13.05" height="13.05" fill="#1C1C1C"/>
  <rect x="463.31" y="267.29" width="13.05" height="13.05" fill="#1C1C1C"/>
  <rect x="35.63" y="285.11" width="13.05" height="13.05" fill="#1C1C1C"/>
  <rect x="53.45" y="285.11" width="13.05" height="13.05" fill="#1C1C1C"/>
  <rect x="71.27" y="285.11" width="13.05" height="13.05" fill="#1C1C1C"/>
  <rect x="89.09" y="285.11" width="13.05" height="13.05" fill="#1C1C1C"/>
  <rect x="124.73" y="285.11" width="13.05" height="13.05" fill="#1C1C1C"/>
  <rect x="160.37" y="285.11" width="13.05" height="13.05" fill="#1C1C1C"/>
  <rect x="178.19" y="285.11" width="13.05" height="13.05" fill="#1C1C1C"/>
  <rect x="196.01" y="285.11" width="13.05" height="13.05" fill="#1C1C1C"/>
  <rect x="231.65" y="285.11" width="13.05" height="13.05" fill="#1C1C1C"/>
  <rect x="267.29" y="285.11" width="13.05" height="13.05" fill="#1C1C1C"/>
  <rect x="302.93" y="285.11" width="13.05" height="13.05" fill="#1C1C1C"/>
  <rect x="338.57" y="285.11" width="13.05" height="13.05" fill="#1C1C1C"/>
  <rect x="356.39" y="285.11" width="13.05" height="13.05" fill="#1C1C1C"/>
  <rect x="374.21" y="285.11" width="13.05" height="13.05" fill="#1C1C1C"/>
  <rect x="409.85" y="285.11" width="13.05" height="13.05" fill="#1C1C1C"/>
  <rect x="427.67" y="285.11" width="13.05" height="13.05" fill="#1C1C1C"/>
  <rect x="445.49" y="285.11" width="13.05" height="13.05" fill="#1C1C1C"/>
  <rect x="463.31" y="285.11" width="13.05" height="13.05" fill="#1C1C1C"/>
  <rect x="35.63" y="302.93" width="13.05" height="13.05" fill="#1C1C1C"/>
  <rect x="53.45" y="302.93" width="13.05" height="13.05" fill="#1C1C1C"/>
  <rect x="71.27" y="302.93" width="13.05" height="13.05" fill="#1C1C1C"/>
  <rect x="89.09" y="302.93" width="13.05" height="13.05" fill="#1C1C1C"/>
  <rect x="160.37" y="302.93" width="13.05" height="13.05" fill="#1C1C1C"/>
  <rect x="231.65" y="302.93" width="13.05" height="13.05" fill="#1C1C1C"/>
  <rect x="249.47" y="302.93" width="13.05" height="13.05" fill="#ffffff"/>
  <rect x="249.47" y="285.11" width="13.05" height="13.05" fill="#1C1C1C"/>
  <rect x="249.47" y="249.47" width="13.05" height="13.05" fill="#1C1C1C"/>
  <rect x="267.29" y="302.93" width="13.05" height="13.05" fill="#1C1C1C"/>
  <rect x="338.57" y="302.93" width="13.05" height="13.05" fill="#1C1C1C"/>
  <rect x="356.39" y="302.93" width="13.05" height="13.05" fill="#1C1C1C"/>
  <rect x="374.21" y="302.93" width="13.05" height="13.05" fill="#1C1C1C"/>
  <rect x="409.85" y="302.93" width="13.05" height="13.05" fill="#1C1C1C"/>
  <rect x="427.67" y="302.93" width="13.05" height="13.05" fill="#1C1C1C"/>
  <rect x="445.49" y="302.93" width="13.05" height="13.05" fill="#1C1C1C"/>
  <rect x="463.31" y="302.93" width="13.05" height="13.05" fill="#1C1C1C"/>
  <rect x="53.45" y="320.75" width="13.05" height="13.05" fill="#1C1C1C"/>
  <rect x="71.27" y="320.75" width="13.05" height="13.05" fill="#1C1C1C"/>
  <rect x="89.09" y="320.75" width="13.05" height="13.05" fill="#1C1C1C"/>
  <rect x="106.91" y="320.75" width="13.05" height="13.05" fill="#1C1C1C"/>
  <rect x="124.73" y="320.75" width="13.05" height="13.05" fill="#1C1C1C"/>
  <rect x="142.55" y="320.75" width="13.05" height="13.05" fill="#1C1C1C"/>
  <rect x="160.37" y="320.75" width="13.05" height="13.05" fill="#1C1C1C"/>
  <rect x="178.19" y="320.75" width="13.05" height="13.05" fill="#1C1C1C"/>
  <rect x="196.01" y="320.75" width="13.05" height="13.05" fill="#1C1C1C"/>
  <rect x="213.83" y="320.75" width="13.05" height="13.05" fill="#1C1C1C"/>
  <rect x="231.65" y="320.75" width="13.05" height="13.05" fill="#1C1C1C"/>
  <rect x="249.47" y="320.75" width="13.05" height="13.05" fill="#1C1C1C"/>
  <rect x="267.29" y="320.75" width="13.05" height="13.05" fill="#1C1C1C"/>
  <rect x="285.11" y="320.75" width="13.05" height="13.05" fill="#1C1C1C"/>
  <rect x="302.93" y="320.75" width="13.05" height="13.05" fill="#1C1C1C"/>
  <rect x="320.75" y="320.75" width="13.05" height="13.05" fill="#1C1C1C"/>
  <rect x="338.57" y="320.75" width="13.05" height="13.05" fill="#1C1C1C"/>
  <rect x="356.39" y="320.75" width="13.05" height="13.05" fill="#1C1C1C"/>
  <rect x="374.21" y="320.75" width="13.05" height="13.05" fill="#1C1C1C"/>
  <rect x="392.03" y="320.75" width="13.05" height="13.05" fill="#1C1C1C"/>
  <rect x="409.85" y="320.75" width="13.05" height="13.05" fill="#1C1C1C"/>
  <rect x="427.67" y="320.75" width="13.05" height="13.05" fill="#1C1C1C"/>
  <rect x="445.49" y="320.75" width="13.05" height="13.05" fill="#1C1C1C"/>
  <rect x="53.45" y="338.57" width="13.05" height="13.05" fill="#1C1C1C"/>
  <rect x="71.27" y="338.57" width="13.05" height="13.05" fill="#1C1C1C"/>
  <rect x="89.09" y="338.57" width="13.05" height="13.05" fill="#1C1C1C"/>
  <rect x="106.91" y="338.57" width="13.05" height="13.05" fill="#1C1C1C"/>
  <rect x="124.73" y="338.57" width="13.05" height="13.05" fill="#1C1C1C"/>
  <rect x="142.55" y="338.57" width="13.05" height="13.05" fill="#1C1C1C"/>
  <rect x="160.37" y="338.57" width="13.05" height="13.05" fill="#1C1C1C"/>
  <rect x="178.19" y="338.57" width="13.05" height="13.05" fill="#1C1C1C"/>
  <rect x="213.83" y="338.57" width="13.05" height="13.05" fill="#1C1C1C"/>
  <rect x="249.47" y="338.57" width="13.05" height="13.05" fill="#1C1C1C"/>
  <rect x="267.29" y="338.57" width="13.05" height="13.05" fill="#1C1C1C"/>
  <rect x="302.93" y="338.57" width="13.05" height="13.05" fill="#1C1C1C"/>
  <rect x="320.75" y="338.57" width="13.05" height="13.05" fill="#1C1C1C"/>
  <rect x="338.57" y="338.57" width="13.05" height="13.05" fill="#1C1C1C"/>
  <rect x="356.39" y="338.57" width="13.05" height="13.05" fill="#1C1C1C"/>
  <rect x="374.21" y="338.57" width="13.05" height="13.05" fill="#1C1C1C"/>
  <rect x="392.03" y="338.57" width="13.05" height="13.05" fill="#1C1C1C"/>
  <rect x="409.85" y="338.57" width="13.05" height="13.05" fill="#1C1C1C"/>
  <rect x="427.67" y="338.57" width="13.05" height="13.05" fill="#1C1C1C"/>
  <rect x="445.49" y="338.57" width="13.05" height="13.05" fill="#1C1C1C"/>
  <rect x="71.27" y="356.39" width="13.05" height="13.05" fill="#1C1C1C"/>
  <rect x="89.09" y="356.39" width="13.05" height="13.05" fill="#1C1C1C"/>
  <rect x="106.91" y="356.39" width="13.05" height="13.05" fill="#1C1C1C"/>
  <rect x="124.73" y="356.39" width="13.05" height="13.05" fill="#1C1C1C"/>
  <rect x="142.55" y="356.39" width="13.05" height="13.05" fill="#1C1C1C"/>
  <rect x="160.37" y="356.39" width="13.05" height="13.05" fill="#1C1C1C"/>
  <rect x="178.19" y="356.39" width="13.05" height="13.05" fill="#1C1C1C"/>
  <rect x="249.47" y="356.39" width="13.05" height="13.05" fill="#1C1C1C"/>
  <rect x="285.11" y="356.39" width="13.05" height="13.05" fill="#1C1C1C"/>
  <rect x="320.75" y="356.39" width="13.05" height="13.05" fill="#1C1C1C"/>
  <rect x="338.57" y="356.39" width="13.05" height="13.05" fill="#1C1C1C"/>
  <rect x="356.39" y="356.39" width="13.05" height="13.05" fill="#1C1C1C"/>
  <rect x="374.21" y="356.39" width="13.05" height="13.05" fill="#1C1C1C"/>
  <rect x="392.03" y="356.39" width="13.05" height="13.05" fill="#1C1C1C"/>
  <rect x="409.85" y="356.39" width="13.05" height="13.05" fill="#1C1C1C"/>
  <rect x="427.67" y="356.39" width="13.05" height="13.05" fill="#1C1C1C"/>
  <rect x="71.27" y="374.21" width="13.05" height="13.05" fill="#1C1C1C"/>
  <rect x="89.09" y="374.21" width="13.05" height="13.05" fill="#1C1C1C"/>
  <rect x="106.91" y="374.21" width="13.05" height="13.05" fill="#1C1C1C"/>
  <rect x="124.73" y="374.21" width="13.05" height="13.05" fill="#1C1C1C"/>
  <rect x="142.55" y="374.21" width="13.05" height="13.05" fill="#1C1C1C"/>
  <rect x="160.37" y="374.21" width="13.05" height="13.05" fill="#1C1C1C"/>
  <rect x="178.19" y="374.21" width="13.05" height="13.05" fill="#1C1C1C"/>
  <rect x="213.83" y="374.21" width="13.05" height="13.05" fill="#1C1C1C"/>
  <rect x="249.47" y="374.21" width="13.05" height="13.05" fill="#1C1C1C"/>
  <rect x="285.11" y="374.21" width="13.05" height="13.05" fill="#1C1C1C"/>
  <rect x="320.75" y="374.21" width="13.05" height="13.05" fill="#1C1C1C"/>
  <rect x="338.57" y="374.21" width="13.05" height="13.05" fill="#1C1C1C"/>
  <rect x="356.39" y="374.21" width="13.05" height="13.05" fill="#1C1C1C"/>
  <rect x="374.21" y="374.21" width="13.05" height="13.05" fill="#1C1C1C"/>
  <rect x="392.03" y="374.21" width="13.05" height="13.05" fill="#1C1C1C"/>
  <rect x="409.85" y="374.21" width="13.05" height="13.05" fill="#1C1C1C"/>
  <rect x="427.67" y="374.21" width="13.05" height="13.05" fill="#1C1C1C"/>
  <rect x="89.09" y="392.03" width="13.05" height="13.05" fill="#1C1C1C"/>
  <rect x="106.91" y="392.03" width="13.05" height="13.05" fill="#1C1C1C"/>
  <rect x="124.73" y="392.03" width="13.05" height="13.05" fill="#1C1C1C"/>
  <rect x="142.55" y="392.03" width="13.05" height="13.05" fill="#1C1C1C"/>
  <rect x="160.37" y="392.03" width="13.05" height="13.05" fill="#1C1C1C"/>
  <rect x="178.19" y="392.03" width="13.05" height="13.05" fill="#1C1C1C"/>
  <rect x="213.83" y="392.03" width="13.05" height="13.05" fill="#1C1C1C"/>
  <rect x="249.47" y="392.03" width="13.05" height="13.05" fill="#1C1C1C"/>
  <rect x="285.11" y="392.03" width="13.05" height="13.05" fill="#1C1C1C"/>
  <rect x="320.75" y="392.03" width="13.05" height="13.05" fill="#1C1C1C"/>
  <rect x="338.57" y="392.03" width="13.05" height="13.05" fill="#1C1C1C"/>
  <rect x="356.39" y="392.03" width="13.05" height="13.05" fill="#1C1C1C"/>
  <rect x="374.21" y="392.03" width="13.05" height="13.05" fill="#1C1C1C"/>
  <rect x="392.03" y="392.03" width="13.05" height="13.05" fill="#1C1C1C"/>
  <rect x="409.85" y="392.03" width="13.05" height="13.05" fill="#1C1C1C"/>
  <rect x="106.91" y="409.85" width="13.05" height="13.05" fill="#1C1C1C"/>
  <rect x="124.73" y="409.85" width="13.05" height="13.05" fill="#1C1C1C"/>
  <rect x="142.55" y="409.85" width="13.05" height="13.05" fill="#1C1C1C"/>
  <rect x="160.37" y="409.85" width="13.05" height="13.05" fill="#1C1C1C"/>
  <rect x="178.19" y="409.85" width="13.05" height="13.05" fill="#1C1C1C"/>
  <rect x="213.83" y="409.85" width="13.05" height="13.05" fill="#1C1C1C"/>
  <rect x="249.47" y="409.85" width="13.05" height="13.05" fill="#1C1C1C"/>
  <rect x="267.29" y="409.85" width="13.05" height="13.05" fill="#1C1C1C"/>
  <rect x="302.93" y="409.85" width="13.05" height="13.05" fill="#1C1C1C"/>
  <rect x="320.75" y="409.85" width="13.05" height="13.05" fill="#1C1C1C"/>
  <rect x="338.57" y="409.85" width="13.05" height="13.05" fill="#1C1C1C"/>
  <rect x="356.39" y="409.85" width="13.05" height="13.05" fill="#1C1C1C"/>
  <rect x="374.21" y="409.85" width="13.05" height="13.05" fill="#1C1C1C"/>
  <rect x="392.03" y="409.85" width="13.05" height="13.05" fill="#1C1C1C"/>
  <rect x="124.73" y="427.67" width="13.05" height="13.05" fill="#1C1C1C"/>
  <rect x="142.55" y="427.67" width="13.05" height="13.05" fill="#1C1C1C"/>
  <rect x="160.37" y="427.67" width="13.05" height="13.05" fill="#1C1C1C"/>
  <rect x="178.19" y="427.67" width="13.05" height="13.05" fill="#1C1C1C"/>
  <rect x="196.01" y="427.67" width="13.05" height="13.05" fill="#1C1C1C"/>
  <rect x="213.83" y="427.67" width="13.05" height="13.05" fill="#1C1C1C"/>
  <rect x="231.65" y="427.67" width="13.05" height="13.05" fill="#1C1C1C"/>
  <rect x="249.47" y="427.67" width="13.05" height="13.05" fill="#1C1C1C"/>
  <rect x="267.29" y="427.67" width="13.05" height="13.05" fill="#1C1C1C"/>
  <rect x="285.11" y="427.67" width="13.05" height="13.05" fill="#1C1C1C"/>
  <rect x="302.93" y="427.67" width="13.05" height="13.05" fill="#1C1C1C"/>
  <rect x="320.75" y="427.67" width="13.05" height="13.05" fill="#1C1C1C"/>
  <rect x="338.57" y="427.67" width="13.05" height="13.05" fill="#1C1C1C"/>
  <rect x="356.39" y="427.67" width="13.05" height="13.05" fill="#1C1C1C"/>
  <rect x="374.21" y="427.67" width="13.05" height="13.05" fill="#1C1C1C"/>
  <rect x="160.37" y="445.49" width="13.05" height="13.05" fill="#1C1C1C"/>
  <rect x="178.19" y="445.49" width="13.05" height="13.05" fill="#1C1C1C"/>
  <rect x="196.01" y="445.49" width="13.05" height="13.05" fill="#1C1C1C"/>
  <rect x="213.83" y="445.49" width="13.05" height="13.05" fill="#1C1C1C"/>
  <rect x="231.65" y="445.49" width="13.05" height="13.05" fill="#1C1C1C"/>
  <rect x="249.47" y="445.49" width="13.05" height="13.05" fill="#1C1C1C"/>
  <rect x="267.29" y="445.49" width="13.05" height="13.05" fill="#1C1C1C"/>
  <rect x="285.11" y="445.49" width="13.05" height="13.05" fill="#1C1C1C"/>
  <rect x="302.93" y="445.49" width="13.05" height="13.05" fill="#1C1C1C"/>
  <rect x="320.75" y="445.49" width="13.05" height="13.05" fill="#1C1C1C"/>
  <rect x="338.57" y="445.49" width="13.05" height="13.05" fill="#1C1C1C"/>
  <rect x="196.01" y="463.31" width="13.05" height="13.05" fill="#1C1C1C"/>
  <rect x="213.83" y="463.31" width="13.05" height="13.05" fill="#1C1C1C"/>
  <rect x="231.65" y="463.31" width="13.05" height="13.05" fill="#1C1C1C"/>
  <rect x="249.47" y="463.31" width="13.05" height="13.05" fill="#1C1C1C"/>
  <rect x="267.29" y="463.31" width="13.05" height="13.05" fill="#1C1C1C"/>
  <rect x="285.11" y="463.31" width="13.05" height="13.05" fill="#1C1C1C"/>
  <rect x="302.93" y="463.31" width="13.05" height="13.05" fill="#1C1C1C"/>
  <rect x="124.73" y="124.73" width="13.05" height="13.05" fill="#ffffff"/>
  <rect x="178.19" y="124.73" width="13.05" height="13.05" fill="#ffffff"/>
  <rect x="196.01" y="124.73" width="13.05" height="13.05" fill="#ffffff"/>
  <rect x="213.83" y="124.73" width="13.05" height="13.05" fill="#ffffff"/>
  <rect x="285.11" y="124.73" width="13.05" height="13.05" fill="#ffffff"/>
  <rect x="302.93" y="124.73" width="13.05" height="13.05" fill="#ffffff"/>
  <rect x="320.75" y="124.73" width="13.05" height="13.05" fill="#ffffff"/>
  <rect x="356.39" y="124.73" width="13.05" height="13.05" fill="#ffffff"/>
  <rect x="392.03" y="124.73" width="13.05" height="13.05" fill="#ffffff"/>
  <rect x="106.91" y="142.55" width="13.05" height="13.05" fill="#ffffff"/>
  <rect x="124.73" y="142.55" width="13.05" height="13.05" fill="#ffffff"/>
  <rect x="213.83" y="142.55" width="13.05" height="13.05" fill="#ffffff"/>
  <rect x="249.47" y="142.55" width="13.05" height="13.05" fill="#ffffff"/>
  <rect x="320.75" y="142.55" width="13.05" height="13.05" fill="#ffffff"/>
  <rect x="356.39" y="142.55" width="13.05" height="13.05" fill="#ffffff"/>
  <rect x="392.03" y="142.55" width="13.05" height="13.05" fill="#ffffff"/>
  <rect x="124.73" y="160.37" width="13.05" height="13.05" fill="#ffffff"/>
  <rect x="178.19" y="160.37" width="13.05" height="13.05" fill="#ffffff"/>
  <rect x="196.01" y="160.37" width="13.05" height="13.05" fill="#ffffff"/>
  <rect x="213.83" y="160.37" width="13.05" height="13.05" fill="#ffffff"/>
  <rect x="285.11" y="160.37" width="13.05" height="13.05" fill="#ffffff"/>
  <rect x="302.93" y="160.37" width="13.05" height="13.05" fill="#ffffff"/>
  <rect x="320.75" y="160.37" width="13.05" height="13.05" fill="#ffffff"/>
  <rect x="356.39" y="160.37" width="13.05" height="13.05" fill="#ffffff"/>
  <rect x="374.21" y="160.37" width="13.05" height="13.05" fill="#ffffff"/>
  <rect x="392.03" y="160.37" width="13.05" height="13.05" fill="#ffffff"/>
  <rect x="124.73" y="178.19" width="13.05" height="13.05" fill="#ffffff"/>
  <rect x="178.19" y="178.19" width="13.05" height="13.05" fill="#ffffff"/>
  <rect x="249.47" y="178.19" width="13.05" height="13.05" fill="#ffffff"/>
  <rect x="320.75" y="178.19" width="13.05" height="13.05" fill="#ffffff"/>
  <rect x="392.03" y="178.19" width="13.05" height="13.05" fill="#ffffff"/>
  <rect x="106.91" y="196.01" width="13.05" height="13.05" fill="#ffffff"/>
  <rect x="124.73" y="196.01" width="13.05" height="13.05" fill="#ffffff"/>
  <rect x="142.55" y="196.01" width="13.05" height="13.05" fill="#ffffff"/>
  <rect x="178.19" y="196.01" width="13.05" height="13.05" fill="#ffffff"/>
  <rect x="196.01" y="196.01" width="13.05" height="13.05" fill="#ffffff"/>
  <rect x="213.83" y="196.01" width="13.05" height="13.05" fill="#ffffff"/>
  <rect x="285.11" y="196.01" width="13.05" height="13.05" fill="#ffffff"/>
  <rect x="302.93" y="196.01" width="13.05" height="13.05" fill="#ffffff"/>
  <rect x="320.75" y="196.01" width="13.05" height="13.05" fill="#ffffff"/>
  <rect x="392.03" y="196.01" width="13.05" height="13.05" fill="#ffffff"/>
  <rect x="106.91" y="231.65" width="13.05" height="13.05" fill="#ffffff"/>
  <rect x="124.73" y="231.65" width="13.05" height="13.05" fill="#ffffff"/>
  <rect x="142.55" y="231.65" width="13.05" height="13.05" fill="#ffffff"/>
  <rect x="178.19" y="231.65" width="13.05" height="13.05" fill="#ffffff"/>
  <rect x="196.01" y="231.65" width="13.05" height="13.05" fill="#ffffff"/>
  <rect x="213.83" y="231.65" width="13.05" height="13.05" fill="#ffffff"/>
  <rect x="285.11" y="231.65" width="13.05" height="13.05" fill="#ffffff"/>
  <rect x="302.93" y="231.65" width="13.05" height="13.05" fill="#ffffff"/>
  <rect x="320.75" y="231.65" width="13.05" height="13.05" fill="#ffffff"/>
  <rect x="356.39" y="231.65" width="13.05" height="13.05" fill="#ffffff"/>
  <rect x="392.03" y="231.65" width="13.05" height="13.05" fill="#ffffff"/>
  <rect x="106.91" y="249.47" width="13.05" height="13.05" fill="#ffffff"/>
  <rect x="142.55" y="249.47" width="13.05" height="13.05" fill="#ffffff"/>
  <rect x="213.83" y="249.47" width="13.05" height="13.05" fill="#ffffff"/>
  <rect x="285.11" y="249.47" width="13.05" height="13.05" fill="#ffffff"/>
  <rect x="320.75" y="249.47" width="13.05" height="13.05" fill="#ffffff"/>
  <rect x="356.39" y="249.47" width="13.05" height="13.05" fill="#ffffff"/>
  <rect x="392.03" y="249.47" width="13.05" height="13.05" fill="#ffffff"/>
  <rect x="106.91" y="267.29" width="13.05" height="13.05" fill="#ffffff"/>
  <rect x="142.55" y="267.29" width="13.05" height="13.05" fill="#ffffff"/>
  <rect x="178.19" y="267.29" width="13.05" height="13.05" fill="#ffffff"/>
  <rect x="196.01" y="267.29" width="13.05" height="13.05" fill="#ffffff"/>
  <rect x="213.83" y="267.29" width="13.05" height="13.05" fill="#ffffff"/>
  <rect x="285.11" y="267.29" width="13.05" height="13.05" fill="#ffffff"/>
  <rect x="320.75" y="267.29" width="13.05" height="13.05" fill="#ffffff"/>
  <rect x="356.39" y="267.29" width="13.05" height="13.05" fill="#ffffff"/>
  <rect x="374.21" y="267.29" width="13.05" height="13.05" fill="#ffffff"/>
  <rect x="392.03" y="267.29" width="13.05" height="13.05" fill="#ffffff"/>
  <rect x="106.91" y="285.11" width="13.05" height="13.05" fill="#ffffff"/>
  <rect x="142.55" y="285.11" width="13.05" height="13.05" fill="#ffffff"/>
  <rect x="213.83" y="285.11" width="13.05" height="13.05" fill="#ffffff"/>
  <rect x="285.11" y="285.11" width="13.05" height="13.05" fill="#ffffff"/>
  <rect x="320.75" y="285.11" width="13.05" height="13.05" fill="#ffffff"/>
  <rect x="392.03" y="285.11" width="13.05" height="13.05" fill="#ffffff"/>
  <rect x="106.91" y="302.93" width="13.05" height="13.05" fill="#ffffff"/>
  <rect x="124.73" y="302.93" width="13.05" height="13.05" fill="#ffffff"/>
  <rect x="142.55" y="302.93" width="13.05" height="13.05" fill="#ffffff"/>
  <rect x="178.19" y="302.93" width="13.05" height="13.05" fill="#ffffff"/>
  <rect x="196.01" y="302.93" width="13.05" height="13.05" fill="#ffffff"/>
  <rect x="213.83" y="302.93" width="13.05" height="13.05" fill="#ffffff"/>
  <rect x="285.11" y="302.93" width="13.05" height="13.05" fill="#ffffff"/>
  <rect x="302.93" y="302.93" width="13.05" height="13.05" fill="#ffffff"/>
  <rect x="320.75" y="302.93" width="13.05" height="13.05" fill="#ffffff"/>
  <rect x="392.03" y="302.93" width="13.05" height="13.05" fill="#ffffff"/>
  <rect x="196.01" y="338.57" width="13.05" height="13.05" fill="#ffffff"/>
  <rect x="231.65" y="338.57" width="13.05" height="13.05" fill="#ffffff"/>
  <rect x="285.11" y="338.57" width="13.05" height="13.05" fill="#ffffff"/>
  <rect x="196.01" y="356.39" width="13.05" height="13.05" fill="#ffffff"/>
  <rect x="213.83" y="356.39" width="13.05" height="13.05" fill="#ffffff"/>
  <rect x="231.65" y="356.39" width="13.05" height="13.05" fill="#ffffff"/>
  <rect x="267.29" y="356.39" width="13.05" height="13.05" fill="#ffffff"/>
  <rect x="302.93" y="356.39" width="13.05" height="13.05" fill="#ffffff"/>
  <rect x="196.01" y="374.21" width="13.05" height="13.05" fill="#ffffff"/>
  <rect x="231.65" y="374.21" width="13.05" height="13.05" fill="#ffffff"/>
  <rect x="267.29" y="374.21" width="13.05" height="13.05" fill="#ffffff"/>
  <rect x="302.93" y="374.21" width="13.05" height="13.05" fill="#ffffff"/>
  <rect x="196.01" y="392.03" width="13.05" height="13.05" fill="#ffffff"/>
  <rect x="231.65" y="392.03" width="13.05" height="13.05" fill="#ffffff"/>
  <rect x="267.29" y="392.03" width="13.05" height="13.05" fill="#ffffff"/>
  <rect x="302.93" y="392.03" width="13.05" height="13.05" fill="#ffffff"/>
  <rect x="196.01" y="409.85" width="13.05" height="13.05" fill="#ffffff"/>
  <rect x="231.65" y="409.85" width="13.05" height="13.05" fill="#ffffff"/>
  <rect x="285.11" y="409.85" width="13.05" height="13.05" fill="#ffffff"/>
</svg>
